<?xml version="1.0" encoding="UTF-8"?>
<svg width="42px" height="38px" viewBox="0 0 42 38" version="1.1" xmlns="http://www.w3.org/2000/svg" xmlns:xlink="http://www.w3.org/1999/xlink">
    <!-- Generator: Sketch 64 (93537) - https://sketch.com -->
    <title>benefit-icon-2</title>
    <desc>Created with Sketch.</desc>
    <g id="Mockup" stroke="none" stroke-width="1" fill="none" fill-rule="evenodd">
        <g id="Virtual-Appointment-Landing-Page-Template-Mockup" transform="translate(-250.000000, -968.000000)" fill="#00C2C5">
            <g id="benefit-icon-2" transform="translate(250.000000, 968.000000)">
                <g id="Group-3" transform="translate(0.000000, 0.845500)">
                    <path d="M11.1064952,1.8680619 C10.9164952,1.8680619 10.7246857,1.87439524 10.5319714,1.88615714 C8.10720952,2.03091905 5.8751619,3.1483 4.24930476,5.03291905 C2.48411429,7.07858571 1.60830476,9.82634762 1.84806667,12.5704905 C2.22082857,16.8364429 4.34159048,19.6963952 8.12620952,23.4810143 C9.47249524,24.8273 10.3256857,25.5610619 11.3136857,26.4124429 C12.7965905,27.6899667 14.6441143,29.2805381 18.939019,33.6107286 C19.4321143,34.1074429 20.0898762,34.3815857 20.7910667,34.3815857 C21.4841143,34.3815857 22.1337333,34.1128714 22.6223048,33.6252048 C24.9755905,31.271919 26.3200667,30.0875857 27.7441619,28.8353952 C29.2026381,27.5506333 30.7108762,26.2224429 33.4523048,23.4810143 C37.2369238,19.6963952 39.3585905,16.8364429 39.7313524,12.5704905 C39.9702095,9.82634762 39.0953048,7.07858571 37.3292095,5.03291905 C35.7042571,3.1483 33.4722095,2.03091905 31.0465429,1.88615714 C26.7842095,1.63101429 22.9842095,4.24125238 21.6469714,8.21949048 L20.7892571,10.7718238 L19.9324476,8.21949048 C18.6558286,4.42039524 15.1091619,1.8680619 11.1064952,1.8680619 M20.7910667,36.1911095 L20.7910667,36.1911095 C19.6031143,36.1911095 18.4893524,35.7269667 17.6542571,34.8846333 C13.4091143,30.6051095 11.5923524,29.0398714 10.1329714,27.7831571 C9.11782857,26.9091571 8.24111429,26.1545857 6.84687619,24.7603476 C3.39882857,21.3123 0.508114286,18.0271095 0.0448761905,12.727919 C-0.236504762,9.49972857 0.795828571,6.26339524 2.87859048,3.85039524 C4.82744762,1.59301429 7.50644762,0.253966667 10.4243048,0.079347619 C14.7716857,-0.179414286 18.7372571,2.0725381 20.7892571,5.71420476 C22.8412571,2.07344286 26.8004952,-0.180319048 31.1542095,0.079347619 C34.0720667,0.253966667 36.7519714,1.59301429 38.6999238,3.85039524 C40.7826857,6.26339524 41.815019,9.49972857 41.5336381,12.727919 C41.0704,18.0271095 38.1796857,21.3123 34.7316381,24.7603476 C31.9494952,27.5424905 30.4195429,28.889681 28.9393524,30.1934429 C27.5378762,31.4266333 26.2142095,32.5919667 23.9016381,34.9045381 C23.0728762,35.7342048 21.9672571,36.1911095 20.7910667,36.1911095" id="Fill-1"></path>
                </g>
                <path d="M37.0945143,12.6075857 L35.2849905,12.6075857 C35.2849905,9.8933 33.250181,7.17901429 30.5358952,7.17901429 L30.5358952,5.36949048 C34.1549429,5.36949048 37.0945143,8.9885381 37.0945143,12.6075857" id="Fill-4"></path>
                <path d="M6.33260952,12.6075857 L4.52308571,12.6075857 C4.52308571,8.9885381 7.91684762,5.36949048 12.4406571,5.36949048 L12.4406571,7.17901429 C8.82160952,7.17901429 6.33260952,9.8933 6.33260952,12.6075857" id="Fill-6"></path>
            </g>
        </g>
    </g>
</svg>