<svg width="138" height="30" viewBox="0 0 138 30" fill="none" xmlns="http://www.w3.org/2000/svg">
<g clip-path="url(#clip0_1_2)">
<path d="M2.98261 29.6983V7.15826L13.6774 29.6983H15.4243L26.1191 7.07305V29.6983H29.1017V0.298264H26.3322L14.5722 25.3948L2.76957 0.298264H0V29.6983H2.98261Z" fill="white"/>
<path d="M43.0974 29.9965C46.2788 29.9965 48.878 29.1372 50.8948 27.4187C52.9116 25.7001 53.92 23.1649 53.92 19.813V0.298264H50.9374V19.813C50.9374 22.4264 50.2415 24.3651 48.8496 25.6291C47.4577 26.8932 45.5403 27.5252 43.0974 27.5252C40.6545 27.5252 38.73 26.8932 37.3239 25.6291C35.9178 24.3651 35.2148 22.4264 35.2148 19.813V0.298264H32.2322V19.813C32.2322 23.1649 33.2477 25.7001 35.2787 27.4187C37.3097 29.1372 39.9159 29.9965 43.0974 29.9965Z" fill="white"/>
<path d="M70.6852 29.6983V27.3974H59.9904V0.298264H57.0078V29.6983H70.6852Z" fill="white"/>
<path d="M78.8426 29.6983V2.72696H86.5548V0.298264H68.1904V2.72696H75.9026V29.6983H78.8426Z" fill="white"/>
<path d="M104.95 0C109.168 0 112.199 1.41319 114.043 4.23957C115.887 7.06594 116.02 10.6522 114.444 14.9983C112.867 19.3443 110.131 22.9306 106.237 25.757C102.343 28.5833 98.2864 29.9965 94.0682 29.9965C89.8499 29.9965 86.8022 28.5904 84.925 25.7783C83.0865 22.9377 82.9556 19.3443 84.5322 14.9983C86.1089 10.6522 88.8515 7.06594 92.76 4.23957C96.6686 1.41319 100.732 0 104.95 0ZM101.389 6C98.4614 6 95.6808 6.96055 93.0475 8.88165C90.4142 10.8027 88.5164 13.3362 87.3542 16.482C86.1921 19.6278 86.2157 22.1672 87.4252 24.1003C88.6346 26.0334 90.6972 27 93.6129 27C96.5286 27 99.297 26.0395 101.918 24.1184C104.573 22.1732 106.481 19.6278 107.643 16.482C108.805 13.3362 108.785 10.8027 107.584 8.88165C106.382 6.96055 104.317 6 101.389 6Z" fill="white"/>
<path d="M126.715 0.298264L127.123 0.302369C130.217 0.36532 132.581 1.15221 134.214 2.66305C135.918 4.23957 136.77 6.23508 136.77 8.64957C136.77 11.0641 136.103 13.017 134.768 14.5083C133.433 15.9996 131.444 16.9157 128.803 17.2565L137.154 29.6983H133.277L125.309 17.3843H120.707V29.6983H117.724V0.298264H126.715ZM126.715 2.72696H120.707V14.9557H126.715C131.402 14.9557 133.745 12.9175 133.745 8.84131C133.745 4.76508 131.402 2.72696 126.715 2.72696Z" fill="white"/>
</g>
<defs>
<clipPath id="clip0_1_2">
<rect width="138" height="30" fill="white"/>
</clipPath>
</defs>
</svg>
