<?xml version="1.0" encoding="UTF-8"?>
<svg width="41px" height="42px" viewBox="0 0 41 42" version="1.1" xmlns="http://www.w3.org/2000/svg" xmlns:xlink="http://www.w3.org/1999/xlink">
    <!-- Generator: Sketch 64 (93537) - https://sketch.com -->
    <title>benefit-icon-3</title>
    <desc>Created with Sketch.</desc>
    <defs>
        <polygon id="path-1" points="0.000182608696 0.000182608696 15.5219217 0.000182608696 15.5219217 18.2608696 0.000182608696 18.2608696"></polygon>
        <polygon id="path-3" points="-6.52948257e-05 2.60095221e-05 10.9565217 2.60095221e-05 10.9565217 7.30453043 -6.52948257e-05 7.30453043"></polygon>
    </defs>
    <g id="Mockup" stroke="none" stroke-width="1" fill="none" fill-rule="evenodd">
        <g id="Virtual-Appointment-Landing-Page-Template-Mockup" transform="translate(-250.000000, -1092.000000)">
            <g id="benefit-icon-3" transform="translate(250.000000, 1092.000000)">
                <path d="M15.6173348,22.468813 C17.1174652,22.468813 18.4541609,23.4211174 18.9444652,24.8381609 L19.0156826,25.0435957 C19.3060304,25.8835957 20.032813,26.1830739 20.6162478,26.1830739 C21.187813,26.1830739 21.9045522,25.8909 22.2031174,25.072813 L22.2789,24.8664652 C22.783813,23.4841174 24.1122913,22.5564652 25.5841174,22.5564652 C26.1191609,22.5564652 26.6350304,22.6760739 27.1207696,22.9107261 L27.3161609,23.0065957 C28.1141609,23.3919 29.0354217,23.1006391 29.4955957,22.3784217 C29.6772913,22.0944652 29.9320304,21.5064652 29.5914652,20.7732913 L29.4983348,20.5733348 C29.0792478,19.6721609 29.062813,18.6322043 29.4499435,17.7173348 C29.8389,16.8024652 30.6003783,16.0921174 31.538987,15.7670739 L31.7435087,15.6958565 C32.5771174,15.4082478 32.8793348,14.6887696 32.8848663,14.1117261 C32.8893783,13.5346826 32.6008565,12.8106391 31.7736391,12.5084217 L31.5691174,12.4335522 C30.6350739,12.0920739 29.8863783,11.3689435 29.5147696,10.4476826 C29.1422478,9.5255087 29.1778565,8.48555217 29.6115522,7.59076957 L29.7083348,7.39355217 C30.0653348,6.65946522 29.8142478,6.06233478 29.6334652,5.7729 C29.1805957,5.05068261 28.2702913,4.74755217 27.4732043,5.12098696 L27.277813,5.21320435 C26.8057696,5.43142174 26.3081609,5.5419 25.7950304,5.5419 C24.295813,5.5419 22.9582043,4.58959565 22.468813,3.17255217 L22.3966826,2.9652913 C22.1063348,2.12620435 21.3804652,1.82672609 20.7970304,1.82672609 C20.2263783,1.82672609 19.5087261,2.1189 19.2101609,2.93698696 L19.1352913,3.14242174 C18.6294652,4.52568261 17.3000739,5.45424783 15.8273348,5.45424783 C15.2941174,5.45424783 14.7764217,5.33463913 14.2925087,5.09998696 L14.0962043,5.00411739 C13.2991174,4.61881304 12.3769435,4.91098696 11.9167696,5.63137826 C11.7350739,5.91624783 11.4812478,6.50424783 11.821813,7.23833478 L11.9131174,7.43463913 C12.3322043,8.33672609 12.3504652,9.3785087 11.9624217,10.2924652 C11.5734652,11.2073348 10.8129,11.9176826 9.8742913,12.2436391 L9.66611739,12.3148565 C8.83433478,12.6024652 8.53303043,13.3210304 8.52749912,13.898987 C8.52298696,14.4760304 8.81242174,15.2000739 9.63872609,15.5022913 L9.84416087,15.5771609 C10.7772913,15.9186391 11.5269,16.6417696 11.8985087,17.5630304 C12.2710304,18.4852043 12.2354217,19.5251609 11.800813,20.4199435 L11.7040304,20.6180739 C11.3470304,21.3503348 11.5990304,21.9474652 11.779813,22.2369 C12.2317696,22.9609435 13.1420739,23.2613348 13.9391609,22.8897261 L14.1354652,22.7975087 C14.6075087,22.5792913 15.1042043,22.468813 15.6173348,22.468813 M20.6162478,28.0091609 C19.0932913,28.0091609 17.7876391,27.0796826 17.2900304,25.6416391 L17.218813,25.4352913 C16.901987,24.5213348 15.7999435,24.0383348 14.906987,24.4537696 L14.7106826,24.5450739 C13.0991609,25.2937696 11.1562043,24.6847696 10.2322043,23.2065522 C9.58303043,22.1675087 9.52003043,20.9321609 10.0623783,19.8173348 L10.1591609,19.6192043 C10.3700739,19.1845957 10.3865087,18.6970304 10.204813,18.247813 C10.0231174,17.7985957 9.6725087,17.4589435 9.21781304,17.2927696 L9.0132913,17.2179 C7.59624783,16.7002043 6.68959565,15.3909 6.70135007,13.8834652 C6.71516087,12.3751174 7.64463913,11.0822478 9.0699,10.5882913 L9.27807391,10.5170739 C9.7355087,10.3582043 10.0915957,10.0258565 10.2815087,9.57937826 C10.4705087,9.13381304 10.4622913,8.64533478 10.2586826,8.20524783 L10.1664652,8.00894348 C9.64876957,6.89411739 9.72637826,5.67063913 10.3782913,4.64894348 C11.3205522,3.17072609 13.2927261,2.58363913 14.8942043,3.36155217 L15.0905087,3.45742174 C15.9725087,3.88472609 17.0882478,3.42181304 17.4196826,2.51516087 L17.4945522,2.31155217 C18.0067696,0.907291304 19.3032913,0.000639130435 20.7970304,0.000639130435 C22.319987,0.000639130435 23.6256391,0.930117391 24.1223348,2.36816087 L24.1944652,2.57633478 C24.5103783,3.48846522 25.6124217,3.97237826 26.5062913,3.55694348 L26.7025957,3.46563913 C28.3132043,2.71603043 30.2552478,3.32685652 31.1810739,4.80416087 C31.8302478,5.8422913 31.8923348,7.07763913 31.349987,8.19246522 L31.2541174,8.38968261 C31.0432043,8.82611739 31.0258565,9.31368261 31.2075522,9.7629 C31.3892478,10.2121174 31.7398565,10.5517696 32.1945522,10.7179435 L32.399987,10.792813 C33.8179435,11.3105087 34.7236826,12.619813 34.7110336,14.1272478 C34.6972043,15.6355957 33.7677261,16.9284652 32.3424652,17.4215087 L32.1388565,17.4927261 C31.6777696,17.6515957 31.3207696,17.9848565 31.1317696,18.4304217 C30.9418565,18.8769 30.9500739,19.3653783 31.1545957,19.8036391 L31.246813,20.0035957 C31.7645087,21.1165957 31.687813,22.3400739 31.0359,23.3617696 C30.0936391,24.8390739 28.1196391,25.4270739 26.5181609,24.6491609 L26.3227696,24.5532913 C25.4407696,24.1232478 24.3241174,24.5889 23.9945087,25.4937261 L23.9187261,25.7000739 C23.4055957,27.1025087 22.1090739,28.0091609 20.6162478,28.0091609" id="Fill-1" fill="#00C2C5"></path>
                <g id="Group-5" transform="translate(12.782609, 23.444035)">
                    <mask id="mask-2" fill="white">
                        <use xlink:href="#path-1"></use>
                    </mask>
                    <g id="Clip-4"></g>
                    <path d="M0.913226087,18.2610522 C0.795443478,18.2610522 0.676747826,18.2391391 0.563530435,18.1916609 C0.222052174,18.0510522 0.000182608696,17.7168783 0.000182608696,17.3480087 L0.000182608696,0.913226087 C0.000182608696,0.408313043 0.408313043,0.000182608696 0.913226087,0.000182608696 C1.41722609,0.000182608696 1.82626957,0.408313043 1.82626957,0.913226087 L1.82626957,15.1439217 L6.78957391,10.1806174 C7.1337913,9.83457391 7.6880087,9.82270435 8.04866087,10.150487 L13.6958348,15.2836174 L13.6958348,4.5654 C13.6958348,4.06048696 14.1039652,3.65235652 14.6088783,3.65235652 C15.1128783,3.65235652 15.5219217,4.06048696 15.5219217,4.5654 L15.5219217,17.3480087 C15.5219217,17.7095739 15.3091826,18.0364435 14.9777478,18.1825304 C14.6454,18.3277043 14.2619217,18.2656174 13.9944,18.0236609 L7.46522609,12.0870522 L1.55874783,17.9935304 C1.38435652,18.1679217 1.15061739,18.2610522 0.913226087,18.2610522" id="Fill-3" fill="#00C2C5" mask="url(#mask-2)"></path>
                </g>
                <g id="Group-8" transform="translate(30.130435, 4.270122)">
                    <mask id="mask-4" fill="white">
                        <use xlink:href="#path-3"></use>
                    </mask>
                    <g id="Clip-7"></g>
                    <path d="M0.914047826,7.30453043 C0.603613043,7.30453043 0.301395652,7.14657391 0.130656522,6.86170435 C-0.12956087,6.42892174 0.0110478261,5.86831304 0.442917391,5.6090087 L9.57335217,0.130747826 C10.0061348,-0.129469565 10.5667435,0.0111391304 10.8260478,0.443008696 C11.0862652,0.875791304 10.9456565,1.4364 10.513787,1.69570435 L1.38335217,7.17396522 C1.23635217,7.26253043 1.07383043,7.30453043 0.914047826,7.30453043" id="Fill-6" fill="#00C2C5" mask="url(#mask-4)"></path>
                </g>
                <path d="M10.0427478,11.5746522 C9.88205217,11.5746522 9.72044348,11.5326522 9.57344348,11.444087 L0.443008696,5.96582609 C0.0111391304,5.70652174 -0.129469565,5.14591304 0.130747826,4.71313043 C0.390052174,4.28034783 0.949747826,4.13973913 1.38344348,4.40086957 L10.5138783,9.87913043 C10.9457478,10.1384348 11.0863565,10.6990435 10.8261391,11.1318261 C10.6554,11.4166957 10.3531826,11.5746522 10.0427478,11.5746522" id="Fill-9" fill="#00C2C5"></path>
            </g>
        </g>
    </g>
</svg>