<?xml version="1.0" encoding="UTF-8"?>
<svg width="40px" height="35px" viewBox="0 0 40 35" version="1.1" xmlns="http://www.w3.org/2000/svg" xmlns:xlink="http://www.w3.org/1999/xlink">
    <!-- Generator: Sketch 64 (93537) - https://sketch.com -->
    <title>benefit-icon-1</title>
    <desc>Created with Sketch.</desc>
    <g id="Mockup" stroke="none" stroke-width="1" fill="none" fill-rule="evenodd">
        <g id="Virtual-Appointment-Landing-Page-Template-Mockup" transform="translate(-251.000000, -841.000000)" fill="#00C2C5">
            <g id="benefit-icon-1" transform="translate(251.000000, 841.000000)">
                <g id="Group-3" transform="translate(0.000000, 0.000182)">
                    <path d="M36.8740909,27.2727273 L25.4540909,27.2727273 C24.9522727,27.2727273 24.545,26.8663636 24.545,26.3636364 C24.545,25.8609091 24.9522727,25.4545455 25.4540909,25.4545455 L36.8740909,25.4545455 C37.595,25.4545455 38.1813636,24.8672727 38.1813636,24.1472727 L38.1813636,3.12545455 C38.1813636,2.40545455 37.595,1.81818182 36.8740909,1.81818182 L3.12590909,1.81818182 C2.405,1.81818182 1.81772727,2.40545455 1.81772727,3.12545455 L1.81772727,24.1472727 C1.81772727,24.8672727 2.405,25.4545455 3.12590909,25.4545455 L19.9995455,25.4545455 C20.5013636,25.4545455 20.9086364,25.8609091 20.9086364,26.3636364 C20.9086364,26.8663636 20.5013636,27.2727273 19.9995455,27.2727273 L3.12590909,27.2727273 C1.40136364,27.2727273 -0.000454545455,25.87 -0.000454545455,24.1472727 L-0.000454545455,3.12545455 C-0.000454545455,1.40272727 1.40136364,0 3.12590909,0 L36.8740909,0 C38.5977273,0 39.9995455,1.40272727 39.9995455,3.12545455 L39.9995455,24.1472727 C39.9995455,25.87 38.5977273,27.2727273 36.8740909,27.2727273" id="Fill-1"></path>
                </g>
                <g id="Group-6" transform="translate(11.818182, 25.454727)">
                    <path d="M15.253,9.09090909 C15.0202727,9.09090909 14.7875455,9.00181818 14.6102727,8.82454545 L8.18209091,2.39636364 L1.753,8.82454545 C1.39845455,9.18 0.823,9.18 0.467545455,8.82454545 C0.113,8.46909091 0.113,7.89454545 0.467545455,7.53909091 L7.53936364,0.468181818 C7.88027273,0.127272727 8.48390909,0.127272727 8.82481818,0.468181818 L15.8957273,7.53909091 C16.2511818,7.89454545 16.2511818,8.46909091 15.8957273,8.82454545 C15.7184545,9.00181818 15.4857273,9.09090909 15.253,9.09090909" id="Fill-4"></path>
                </g>
                <path d="M31.3254545,34.5456364 L27.6890909,34.5456364 C27.1872727,34.5456364 26.78,34.1392727 26.78,33.6365455 C26.78,33.1338182 27.1872727,32.7274545 27.6890909,32.7274545 L31.3254545,32.7274545 C31.8281818,32.7274545 32.2345455,33.1338182 32.2345455,33.6365455 C32.2345455,34.1392727 31.8281818,34.5456364 31.3254545,34.5456364" id="Fill-7"></path>
                <path d="M13.1436364,34.5456364 L9.50727273,34.5456364 C9.00545455,34.5456364 8.59818182,34.1392727 8.59818182,33.6365455 C8.59818182,33.1338182 9.00545455,32.7274545 9.50727273,32.7274545 L13.1436364,32.7274545 C13.6463636,32.7274545 14.0527273,33.1338182 14.0527273,33.6365455 C14.0527273,34.1392727 13.6463636,34.5456364 13.1436364,34.5456364" id="Fill-9"></path>
                <path d="M35.8709091,23.6365455 L1.32545455,23.6365455 C0.823636364,23.6365455 0.416363636,23.2301818 0.416363636,22.7274545 C0.416363636,22.2247273 0.823636364,21.8183636 1.32545455,21.8183636 L35.8709091,21.8183636 C36.3736364,21.8183636 36.78,22.2247273 36.78,22.7274545 C36.78,23.2301818 36.3736364,23.6365455 35.8709091,23.6365455" id="Fill-11"></path>
                <path d="M5.688,9.65572727 C5.45527273,9.65572727 5.22254545,9.56663636 5.04527273,9.38936364 C4.68981818,9.03390909 4.68981818,8.45936364 5.04527273,8.10390909 L8.25981818,4.89027273 C8.61527273,4.53481818 9.19072727,4.53481818 9.54527273,4.89027273 C9.90072727,5.24481818 9.90072727,5.82027273 9.54527273,6.17572727 L6.33072727,9.38936364 C6.15345455,9.56663636 5.92072727,9.65572727 5.688,9.65572727" id="Fill-13"></path>
                <path d="M7.61718182,13.4021818 C7.38445455,13.4021818 7.15172727,13.3130909 6.97445455,13.1358182 C6.619,12.7803636 6.619,12.2058182 6.97445455,11.8503636 L12.759,6.06581818 C13.1144545,5.71036364 13.6899091,5.71036364 14.0444545,6.06581818 C14.3999091,6.42036364 14.3999091,6.99581818 14.0444545,7.35127273 L8.25990909,13.1358182 C8.08263636,13.3130909 7.84990909,13.4021818 7.61718182,13.4021818" id="Fill-15"></path>
            </g>
        </g>
    </g>
</svg>